<?xml version="1.0" encoding="UTF-8"?>
<!-- Generator: Adobe Illustrator 26.2.1, SVG Export Plug-In . SVG Version: 6.00 Build 0)  -->
<svg xmlns="http://www.w3.org/2000/svg" xmlns:xlink="http://www.w3.org/1999/xlink" version="1.1" id="Capa_1" x="0px" y="0px" viewBox="0 0 218.237 57.247" style="enable-background:new 0 0 218.237 57.247;" xml:space="preserve">
<polygon points="68.515,32.213 90.133,32.213 90.133,25.08 68.515,25.08 68.515,19.991 90.687,19.991 90.687,12.722 68.515,12.722   66.471,12.722 59.655,12.722 59.655,44.526 66.471,44.526 68.515,44.526 90.687,44.526 90.687,37.256 68.515,37.256 "></polygon>
<polygon points="93.671,19.991 107.937,19.991 107.937,44.526 116.797,44.526 116.797,19.991 131.064,19.991 131.064,12.722   93.671,12.722 "></polygon>
<path d="M197.973,19.946l5.275,11.858h-10.47L197.973,19.946z M193.021,12.722l-15.085,31.804h9.178l2.755-5.543h16.363l2.691,5.543  h9.314L202.97,12.722H193.021z"></path>
<polygon points="167.498,12.722 154.867,29.987 142.236,12.722 133.831,12.722 133.831,44.526 142.236,44.526 142.236,27.26   154.867,44.526 167.498,27.26 167.498,44.526 175.903,44.526 175.903,12.722 "></polygon>
<polygon style="fill:#EB2319;" points="28.624,0 0,28.624 28.624,57.247 45.196,40.676 38.835,34.315 28.624,44.526 17.244,33.143   28.624,33.143 28.624,24.105 17.244,24.105 28.624,12.722 38.835,22.932 45.196,16.571 "></polygon>
</svg>
