<?xml version="1.0" encoding="UTF-8"?>
<!DOCTYPE svg PUBLIC "-//W3C//DTD SVG 1.1//EN" "http://www.w3.org/Graphics/SVG/1.1/DTD/svg11.dtd">
<!-- Creator: CorelDRAW 2017 -->
<svg xmlns="http://www.w3.org/2000/svg" xml:space="preserve" width="49.389mm" height="27.6318mm" version="1.1" style="shape-rendering:geometricPrecision; text-rendering:geometricPrecision; image-rendering:optimizeQuality; fill-rule:evenodd; clip-rule:evenodd"
viewBox="0 0 1361 762"
 xmlns:xlink="http://www.w3.org/1999/xlink">
 <defs>
  <style type="text/css">
   <![CDATA[
    .fil0 {fill:#FEFEFE;fill-rule:nonzero}
    .fil1 {fill:#F58640;fill-rule:nonzero}
   ]]>
  </style>
 </defs>
 <g id="Capa_x0020_1">
  <metadata id="CorelCorpID_0Corel-Layer"/>
  <g id="_2099951299424">
   <path class="fil0" d="M54 336c0,13 2,24 6,33 4,9 9,16 15,22 6,5 14,9 22,11 8,2 17,2 26,0 7,-1 13,-4 19,-8 6,-4 11,-8 17,-13 5,-5 10,-11 15,-17 5,-6 9,-13 13,-20l20 11c-4,8 -10,16 -16,24 -6,8 -13,15 -21,22 -8,7 -16,12 -25,17 -9,5 -18,8 -29,10 -17,4 -32,4 -47,2 -14,-2 -26,-7 -37,-14 -10,-7 -18,-16 -24,-28 -6,-12 -9,-25 -9,-41 0,-15 3,-30 8,-44 6,-14 13,-27 23,-38 10,-11 22,-21 36,-29 14,-8 29,-14 46,-18 11,-2 22,-3 31,-2 9,1 18,3 26,6 8,3 14,7 21,13 6,5 11,12 16,19l-20 19c-4,-5 -9,-10 -14,-14 -5,-4 -10,-8 -16,-11 -6,-3 -11,-5 -17,-6 -6,-1 -12,-1 -19,0 -9,2 -18,5 -26,11 -8,5 -15,12 -21,20 -6,8 -11,17 -15,28 -4,11 -5,23 -5,36z"/>
   <path class="fil0" d="M285 321l60 -8 -29 -61 -30 69zm50 -138l93 193 -50 6 -25 -52 -77 10 -26 58 -33 4 97 -217 21 -3z"/>
   <path class="fil0" d="M560 271l83 -4 0 77c-6,4 -13,7 -19,10 -6,3 -13,6 -21,8 -7,2 -15,4 -24,6 -9,2 -18,3 -29,3 -17,1 -33,-1 -48,-5 -15,-4 -27,-10 -38,-18 -11,-8 -19,-18 -25,-31 -6,-12 -9,-26 -9,-41 0,-16 3,-31 9,-44 6,-14 14,-25 25,-35 11,-10 23,-18 38,-24 15,-6 30,-9 48,-10 10,0 20,0 29,3 9,2 18,5 26,10 8,4 15,9 22,15 6,6 12,11 16,17l-20 19c-4,-6 -9,-11 -13,-16 -5,-5 -10,-9 -15,-13 -5,-4 -11,-6 -17,-8 -6,-2 -12,-3 -19,-2 -10,1 -20,3 -29,7 -9,4 -17,10 -23,17 -7,7 -12,16 -15,27 -4,10 -6,22 -6,35 0,13 2,24 6,34 4,10 9,18 16,24 7,6 15,11 24,14 9,3 19,4 29,4 6,0 12,-1 18,-3 6,-2 11,-5 15,-8l0 -53 -34 2 0 -17z"/>
   <polygon class="fil0" points="679,165 711,165 825,296 825,168 856,169 856,373 835,372 711,228 711,366 679,365 "/>
   <path class="fil0" d="M1003 371c10,1 18,0 26,-4 7,-4 14,-9 19,-17 5,-7 9,-16 11,-27 3,-11 4,-22 4,-35 0,-13 -1,-24 -4,-35 -3,-11 -6,-20 -11,-28 -5,-8 -11,-15 -19,-20 -7,-5 -16,-8 -26,-9 -10,-1 -18,0 -26,4 -7,3 -14,9 -19,16 -5,7 -9,16 -11,26 -3,10 -4,22 -4,34 0,13 1,25 4,36 3,11 6,21 11,29 5,8 11,15 19,21 7,5 16,8 26,9zm0 17c-16,-2 -31,-6 -45,-13 -14,-7 -26,-15 -36,-26 -10,-11 -18,-23 -24,-36 -6,-14 -9,-28 -9,-44 0,-15 3,-29 9,-41 6,-12 14,-22 24,-30 10,-8 22,-14 36,-17 14,-4 29,-4 45,-3 16,2 31,6 45,12 14,7 26,15 36,25 10,10 18,22 24,35 6,13 9,27 9,42 0,11 -1,21 -4,30 -3,9 -6,17 -11,25 -5,7 -11,14 -18,19 -7,5 -15,10 -23,13 -8,3 -18,6 -27,7 -10,1 -20,1 -31,0z"/>
   <polygon class="fil0" points="1148,201 1196,210 1196,390 1278,405 1278,426 1148,402 "/>
   <polygon class="fil0" points="1313,234 1361,245 1361,445 1313,434 "/>
   <path class="fil1" d="M340 521c0,-11 -7,-18 -18,-18l-9 0 0 36 9 0c10,0 18,-8 18,-18zm13 0c0,17 -13,30 -31,30l-23 0 0 -60 23 0c18,0 31,13 31,30z"/>
   <polygon class="fil1" points="405,539 405,551 368,551 368,491 404,491 404,503 381,503 381,515 401,515 401,526 381,526 381,539 "/>
   <path class="fil1" d="M954 503c4,-3 7,-6 10,-10 1,-2 2,-4 2,-6 -1,-6 -9,-16 -15,-17 -1,0 -3,0 -4,1 -6,4 -9,10 -11,16 -1,4 -1,8 1,11 5,7 11,9 17,5zm-377 5c-2,-2 -4,-3 -6,-4 -3,-2 -5,-1 -7,3 -5,10 -9,20 -14,30 -10,19 -21,38 -32,56 -9,15 -20,29 -31,44 -1,1 -2,4 -1,5 2,5 5,10 9,13 1,1 3,1 4,2 2,-1 3,-1 4,-2 2,-2 5,-4 6,-7 10,-13 19,-27 27,-41 16,-28 30,-57 43,-87 2,-5 2,-7 -2,-11zm-81 53c-4,-11 -4,-22 0,-33 5,-17 16,-29 34,-33 10,-2 20,-2 30,-3 9,0 18,1 27,2 6,0 12,1 19,2 11,1 23,1 34,-1 10,-2 19,-7 23,-16 3,-6 2,-15 -2,-19 -3,-3 -6,-3 -7,1 -2,5 -6,8 -11,10 -5,1 -10,2 -15,2 -21,1 -42,1 -64,1 0,0 0,0 0,0 -3,0 -5,0 -8,0 -18,0 -35,3 -51,12 -16,9 -28,21 -33,39 -5,15 -5,31 3,45 5,10 25,-2 22,-10zm322 34c-2,3 -4,5 -6,7 -2,2 -4,4 -6,2 -2,-1 -2,-4 -3,-6 0,0 0,-1 0,-1 0,-7 2,-13 4,-18 8,-16 18,-31 31,-44 3,-3 6,-5 9,-8 4,-3 6,-1 6,4 0,6 -3,12 -6,17 -9,15 -19,31 -29,46zm-209 17c-1,2 -3,3 -4,5 -2,2 -4,4 -7,2 -2,-1 -3,-4 -4,-6 0,0 1,0 1,0 -1,-8 3,-14 6,-21 8,-15 17,-29 29,-40 3,-3 6,-5 10,-8 4,-2 6,-1 6,3 -1,5 -2,10 -4,15 -9,17 -20,35 -32,50zm357 -41c9,-18 21,-35 32,-51 6,-8 11,-15 17,-23 4,-6 12,-13 15,-20 2,-5 -3,-12 -8,-15 -12,-8 -28,18 -33,26 -9,13 -16,27 -24,41 -10,18 -20,37 -33,53 -4,5 -8,10 -13,15 -3,3 -6,3 -9,-1 -3,-3 -3,-7 -1,-11 4,-8 8,-15 12,-22 5,-9 11,-17 17,-26 4,-6 5,-12 0,-18 -7,-10 -13,-10 -20,0 -17,26 -28,54 -49,78 -8,8 -22,5 -18,-8 1,-3 2,-5 3,-8 9,-14 17,-28 26,-42 11,-17 24,-33 36,-50 3,-3 2,-7 1,-10 -1,-2 -3,-4 -5,-6 -14,-14 -34,23 -39,32 -4,6 -7,12 -11,19 -2,-1 -4,-2 -6,-3 -7,-4 -14,-4 -21,-1 -13,4 -23,13 -32,24 -7,9 -13,20 -20,29 -5,7 -9,13 -14,20 -4,6 -8,13 -14,17 -1,1 -2,1 -4,1 -2,0 -2,-2 -3,-4 -1,-3 0,-6 1,-10 2,-7 7,-13 11,-19 4,-7 9,-13 13,-20 5,-8 3,-20 -3,-28 -2,-3 -5,-6 -9,-6 -7,-1 -14,5 -19,9 -6,4 -11,9 -16,14 -3,3 -6,6 -8,8 0,-1 0,-2 1,-2 3,-4 6,-8 9,-11 2,-3 2,-5 1,-8 -1,-2 -2,-4 -4,-6 -5,-7 -9,-7 -13,0 -6,8 -11,17 -16,26 -6,10 -10,20 -17,30 -4,6 -9,13 -14,19 -3,4 -8,14 -14,15 -3,1 -6,-2 -7,-5 -1,-3 0,-6 1,-9 4,-11 11,-21 16,-31 4,-6 7,-12 5,-20 -2,-4 -5,-8 -9,-11 -4,-4 -9,-7 -15,-8 -5,-1 -11,-1 -17,1 -19,7 -34,26 -44,43 -6,11 -10,23 -11,35 0,11 7,20 16,25 5,3 10,3 15,1 7,-3 12,-8 18,-13 4,-4 4,-4 7,0 11,14 23,15 37,6 2,-1 4,-3 5,-4 1,2 2,4 3,5 3,5 6,5 9,0 15,-25 32,-49 51,-71 4,-5 9,-9 13,-14 4,-4 7,-9 13,-10 0,0 0,0 1,0 0,0 0,1 0,1 -1,4 -4,7 -6,11 -3,4 -5,8 -8,12 -5,8 -10,16 -14,25 -3,7 -6,15 -4,23 2,7 6,13 12,18 6,5 12,6 19,3 7,-3 13,-7 18,-13 2,-2 4,-4 6,-7 2,2 3,4 5,6 7,9 16,11 25,7 3,-1 5,-3 7,-5 4,-4 9,-8 13,-11 2,2 3,4 5,5 14,14 23,14 36,6 6,-4 11,-9 17,-13 2,2 3,4 5,6 8,8 16,11 25,7 7,-3 13,-7 19,-13 2,-2 4,-4 6,-6 2,2 4,4 6,6 8,7 17,12 28,7 3,-1 6,-3 9,-5 15,-10 25,-24 33,-39 4,-6 2,-12 -5,-15 -4,-2 -7,-1 -9,3 -5,8 -11,16 -16,23 -4,5 -8,9 -13,14 -3,3 -6,3 -10,1 -4,-2 -6,-6 -5,-10 1,-3 2,-6 3,-9z"/>
   <path class="fil1" d="M1075 667c0,-2 -2,-4 -4,-4 0,0 -1,0 -1,0l0 0c-3,1 -7,2 -12,4 -103,43 -236,69 -382,69 -157,0 -299,-30 -404,-79 0,0 0,0 0,0l0 0 0 0c0,0 -1,0 -1,0 -2,0 -4,2 -4,4 0,2 1,3 2,3l0 0c90,56 226,93 381,97l62 0c138,-5 262,-36 349,-84 5,-3 9,-5 12,-7l0 0c1,-1 2,-2 2,-3z"/>
   <path class="fil1" d="M1075 667c0,-2 -2,-4 -4,-4 0,0 -1,0 -1,0l0 0c-3,1 -7,2 -12,4 -103,43 -236,69 -382,69 -157,0 -299,-30 -404,-79 0,0 0,0 0,0l0 0 0 0c0,0 -1,0 -1,0 -2,0 -4,2 -4,4 0,2 1,3 2,3l0 0c90,56 226,93 381,97l62 0c138,-5 262,-36 349,-84 5,-3 9,-5 12,-7l0 0c1,-1 2,-2 2,-3z"/>
   <path class="fil1" d="M385 50c-3,-2 -6,-3 -9,-2 -1,0 -2,0 -3,1 -7,2 -14,3 -21,5 -7,2 -14,3 -21,5 -7,2 -14,4 -21,6 -7,2 -14,4 -21,6 -7,2 -14,4 -21,6 -7,2 -14,4 -21,7 -7,2 -14,5 -21,7 -7,2 -14,5 -20,7 -7,2 -14,5 -20,7 -7,3 -13,5 -20,8 -7,3 -13,5 -20,8l0 0c-3,1 -4,3 -4,6 0,3 3,6 6,6 1,0 1,0 2,0l0 0c74,-27 152,-48 231,-63 5,-1 9,-5 9,-10 0,-3 -1,-6 -4,-8z"/>
   <path class="fil1" d="M1196 120l0 0c-7,-3 -13,-5 -20,-8 -7,-3 -13,-5 -20,-8 -7,-3 -13,-5 -20,-7 -7,-2 -14,-5 -20,-7 -7,-2 -14,-5 -21,-7 -7,-2 -14,-4 -21,-7 -7,-2 -14,-4 -21,-6 -7,-2 -14,-4 -21,-6 -7,-2 -14,-4 -21,-6 -7,-2 -14,-4 -21,-5 -7,-2 -14,-3 -21,-5 -1,0 -2,0 -3,-1 -3,-1 -6,0 -9,2 -3,2 -4,5 -4,8 0,5 4,10 9,10 79,15 156,37 231,63l0 0c1,0 1,0 2,0 3,0 6,-3 6,-6 0,-3 -2,-5 -4,-6z"/>
   <path class="fil1" d="M506 38c0,20 -13,36 -32,38 -19,2 -33,-10 -33,-30 0,-19 14,-35 33,-37 16,-2 29,7 32,21l-14 2c-3,-7 -9,-10 -17,-9 -11,1 -19,10 -19,22 0,12 8,19 19,18 8,-1 15,-6 18,-13l-19 2 0 -11 34 -4z"/>
   <polygon class="fil1" points="563,54 563,67 524,70 524,6 562,3 562,16 537,18 537,31 560,29 560,42 537,43 537,56 "/>
   <polygon class="fil1" points="636,0 636,64 624,65 595,26 595,66 582,66 582,2 594,2 622,40 622,1 "/>
   <path class="fil1" d="M657 40l0 -40 14 0 0 39c0,8 5,13 13,13 7,0 13,-5 13,-13l0 -39 14 0 0 40c0,15 -11,25 -26,25 -15,0 -26,-11 -26,-26z"/>
   <polygon class="fil1" points="731,1 745,1 745,65 731,65 "/>
   <polygon class="fil1" points="821,5 821,69 810,69 781,27 781,67 767,66 767,2 780,3 808,44 808,5 "/>
   <path class="fil1" d="M893 45c0,-12 -9,-21 -20,-22 -11,-1 -20,7 -20,18 0,12 9,21 20,22 11,1 20,-7 20,-18zm-54 -6c0,-19 15,-32 34,-30 19,2 34,18 34,37 0,19 -14,32 -34,30 -19,-2 -34,-18 -34,-37z"/>
  </g>
 </g>
</svg>
